HIERARCHY
ROOT Hips
{
     OFFSET -1.24720 40.56370 -36.40990
     CHANNELS 6 Xposition Yposition Zposition Zrotation Xrotation Yrotation
     JOINT Spine
     {
          OFFSET -0.00000 11.89050 -0.00000
          CHANNELS 3 Zrotation Xrotation Yrotation
          JOINT Spine1
          {
               OFFSET -0.00000 25.65740 0.12766
               CHANNELS 3 Zrotation Xrotation Yrotation
               JOINT HEad
               {
                    OFFSET 0.00000 8.73416 0.01134
                    CHANNELS 3 Zrotation Xrotation Yrotation
                    End Site
                    {
                         OFFSET -0.29000 12.77420 2.51395
                    }
               }
               JOINT LeftShoulder1
               {
                    OFFSET 8.99000 -0.36225 -0.22000
                    CHANNELS 3 Zrotation Xrotation Yrotation
                    JOINT LeftArm
                    {
                         OFFSET 10.28270 -0.00338 0.32212
                         CHANNELS 3 Zrotation Xrotation Yrotation
                         JOINT LeftForeArm
                         {
                              OFFSET 32.76690 0.09914 -1.42434
                              CHANNELS 3 Zrotation Xrotation Yrotation
                              JOINT LeftHand
                              {
                                   OFFSET 27.56430 0.08536 1.02216
                                   CHANNELS 3 Zrotation Xrotation Yrotation
                                   End Site
                                   {
                                        OFFSET 16.74430 -0.60000 1.50291
                                   }
                              }
                         }
                    }
               }
               JOINT RightShoulder
               {
                    OFFSET -8.99000 -0.36225 -0.22000
                    CHANNELS 3 Zrotation Xrotation Yrotation
                    JOINT RightArm
                    {
                         OFFSET -10.28270 -0.00338 0.32212
                         CHANNELS 3 Zrotation Xrotation Yrotation
                         JOINT RightForeArm
                         {
                              OFFSET -32.89710 0.09914 -1.42434
                              CHANNELS 3 Zrotation Xrotation Yrotation
                              JOINT RightHand
                              {
                                   OFFSET -27.49210 0.08536 1.02216
                                   CHANNELS 3 Zrotation Xrotation Yrotation
                                   End Site
                                   {
                                        OFFSET -16.63120 -0.60000 1.50291
                                   }
                              }
                         }
                    }
               }
          }
     }
     JOINT LeftUpLeg
     {
          OFFSET 8.94580 -8.66707 0.10165
          CHANNELS 3 Zrotation Xrotation Yrotation
          JOINT LeftLeg
          {
               OFFSET -0.00000 -44.42270 1.37270
               CHANNELS 3 Zrotation Xrotation Yrotation
               JOINT LeftFoot
               {
                    OFFSET -0.25355 -42.09240 -1.46059
                    CHANNELS 3 Zrotation Xrotation Yrotation
                    JOINT LeftToes
                    {
                         OFFSET -0.04000 -4.41509 8.49910
                         CHANNELS 3 Zrotation Xrotation Yrotation
                         End Site
                         {
                              OFFSET 0.08000 -0.04745 9.77979
                         }
                    }
               }
          }
     }
     JOINT RightUpLeg
     {
          OFFSET -8.94580 -8.66707 0.10165
          CHANNELS 3 Zrotation Xrotation Yrotation
          JOINT RightLeg
          {
               OFFSET -0.00000 -44.42270 1.37270
               CHANNELS 3 Zrotation Xrotation Yrotation
               JOINT RightFoot
               {
                    OFFSET 0.25355 -42.09240 -1.46059
                    CHANNELS 3 Zrotation Xrotation Yrotation
                    JOINT RightToes
                    {
                         OFFSET 0.04000 -4.41509 8.49910
                         CHANNELS 3 Zrotation Xrotation Yrotation
                         End Site
                         {
                              OFFSET -0.08000 -0.13745 9.77979
                         }
                    }
               }
          }
     }
}
MOTION
Frames: 7
Frame Time: 0.01667
-92.90000 101.34400 -23.42410 -4.60616 -4.22796 -26.30760 5.54896 5.45846 -1.39021 5.31622 11.22120 -2.13057 -7.59376 -7.00245 13.72970 -0.00000 -0.00000 0.00000 -91.15940 -25.75980 -96.16970 -24.90700 12.67570 -68.37340 12.03650 7.41935 -20.58800 8.71735 0.50792 1.27431 68.59520 4.51858 89.33710 34.38990 12.52590 60.66150 -10.82630 7.12083 26.71110 4.66855 -10.05000 -15.09900 7.43207 9.57379 -8.43243 -6.51549 -2.05983 0.31629 -4.50396 8.68966 9.40631 0.19569 -1.82836 -24.00540 -13.06320 22.14910 27.66160 -3.95509 -24.70560 -0.89840 1.25163 24.44830 -8.31907 
-92.59870 101.20100 -22.76340 -4.83695 -3.95645 -27.48270 5.66265 5.46123 -1.28774 5.50493 11.23160 -1.94935 -8.00867 -6.89118 14.21730 -0.00000 -0.00000 0.00000 -93.65920 -26.81710 -97.66690 -25.11080 14.86760 -68.75860 12.80250 7.22791 -20.78660 8.30632 0.52248 1.49498 68.64380 4.92069 89.99130 34.56770 12.64750 60.78270 -11.13250 7.00790 26.99660 4.72291 -9.51010 -14.81890 7.72374 8.56095 -9.46614 -5.23681 -0.63939 0.30971 -4.35028 7.43258 10.15590 0.33937 -1.90384 -23.82900 -13.59060 22.02500 28.86250 -4.99030 -24.16940 -1.02962 1.55710 22.41580 -9.22033 
-92.28060 101.07300 -22.06800 -5.04409 -3.63331 -28.51940 5.74146 5.45195 -1.22838 5.72113 11.20560 -1.85213 -8.35270 -6.87622 14.68410 -0.00000 -0.00000 0.00000 -96.16560 -27.73230 -99.08540 -25.26930 17.06770 -69.16870 13.50600 7.05499 -20.92040 8.02029 0.53839 1.70751 68.47490 5.26698 90.50660 34.71700 12.73890 60.85840 -11.41620 6.89634 27.31470 4.95230 -9.32382 -14.84600 7.34492 8.44259 -9.08151 -3.57302 0.77120 0.24281 -3.81313 5.43949 10.36640 0.42952 -1.97197 -23.66530 -14.06390 21.86590 29.88830 -5.30228 -23.98710 -1.06600 1.72198 21.33890 -9.74591 
-91.95340 100.96600 -21.34990 -5.20816 -3.27743 -29.38210 5.79308 5.43870 -1.21698 5.95729 11.16270 -1.85201 -8.67024 -6.95777 15.10690 -0.00000 -0.00000 0.00000 -98.73480 -28.48220 -100.43900 -25.47030 19.33880 -69.56060 14.19090 6.88825 -21.02170 7.84031 0.55351 1.89152 68.11740 5.55149 90.94230 34.93920 12.74830 60.86780 -11.60040 6.80766 27.67070 5.33775 -9.42651 -15.09910 6.44152 8.93312 -7.80133 -1.82141 1.80477 0.12395 -3.15903 3.33558 10.28130 0.44985 -2.01542 -23.55050 -14.45890 21.65340 30.76690 -5.09844 -24.09960 -1.04199 1.81323 21.07800 -10.03780 
-91.62440 100.88600 -20.62760 -5.30619 -2.92717 -30.08100 5.79664 5.43410 -1.24877 6.18613 11.12780 -1.94222 -8.95876 -7.14492 15.48150 -0.00000 -0.00000 0.00000 -101.42400 -29.08720 -101.74500 -25.83420 21.76550 -69.87010 14.92100 6.71069 -21.11490 7.75533 0.57290 2.08985 67.61150 5.73781 91.30320 35.22370 12.70600 60.83780 -11.66160 6.75208 28.03920 5.76427 -9.69171 -15.37310 5.29659 9.68236 -6.39946 -0.23675 2.32228 -0.00895 -2.65621 1.68658 10.26090 0.38484 -2.00326 -23.49980 -14.75840 21.33790 31.52660 -4.67402 -24.30790 -0.98933 1.87345 21.19750 -10.22110 
-91.29670 100.84200 -19.91780 -5.31785 -2.61024 -30.66030 5.73627 5.44473 -1.30842 6.37007 11.11480 -2.09359 -9.17777 -7.44149 15.81650 -0.00000 -0.00000 0.00000 -104.23700 -29.59410 -103.01300 -26.47950 24.37000 -70.02370 15.71640 6.51428 -21.22480 7.75687 0.60120 2.34259 67.01450 5.79218 91.56080 35.48490 12.69330 60.82890 -11.61680 6.73088 28.37240 6.06550 -10.00470 -15.41700 4.25619 10.43660 -5.46209 1.09416 2.44998 -0.12682 -2.38489 0.65727 10.44640 0.22104 -1.92995 -23.49290 -14.94620 20.89050 32.18000 -4.31624 -24.38550 -0.93902 1.91567 21.18810 -10.35280 
-90.96780 100.83400 -19.22930 -5.23474 -2.33421 -31.18230 5.61423 5.47150 -1.36943 6.47551 11.12960 -2.25284 -9.28144 -7.87067 16.11830 -0.00000 -0.00000 0.00000 -107.02100 -30.02870 -104.20600 -27.44710 26.98550 -69.97250 16.51850 6.30697 -21.38470 7.82256 0.63592 2.63023 66.40750 5.72710 91.69330 35.65150 12.78560 60.90560 -11.51370 6.73715 28.60840 6.12261 -10.30060 -15.08830 3.55951 11.09470 -5.12581 2.16351 2.35664 -0.21883 -2.27743 0.12835 10.69820 -0.04561 -1.81521 -23.48300 -15.02590 20.31430 32.74610 -4.12804 -24.23490 -0.90360 1.93732 20.82830 -10.43640 
